<svg width="123" height="122" viewBox="0 0 123 122" fill="none" xmlns="http://www.w3.org/2000/svg">
<g filter="url(#filter0_d_34_26)">
<path d="M49.8127 36.966C53.8827 36.0114 58.1187 36.0113 62.1886 36.966C68.0664 38.3448 72.6556 42.9349 74.0344 48.8127C74.989 52.8827 74.9891 57.1186 74.0344 61.1887C72.6556 67.0663 68.0663 71.6556 62.1886 73.0344C58.1186 73.989 53.8827 73.989 49.8127 73.0344C43.9349 71.6556 39.3448 67.0664 37.966 61.1887C37.0113 57.1187 37.0114 52.8827 37.966 48.8127C39.3447 42.9349 43.9349 38.3447 49.8127 36.966Z" fill="#5346EB"/>
<path d="M49.7773 32.8789C54.177 31.9803 58.7237 32.0441 63.1025 33.0713L63.7871 33.2451C70.8143 35.1581 76.257 40.7729 77.9287 47.8994L78.1211 48.7773C78.9599 52.8839 78.96 57.118 78.1211 61.2246L77.9287 62.1025C76.2568 69.2291 70.8138 74.8421 63.7871 76.7549L63.1025 76.9287C58.7236 77.9559 54.1771 78.0198 49.7773 77.1211L48.8994 76.9287C41.7728 75.257 36.1581 69.8143 34.2451 62.7871L34.0713 62.1025C32.9757 57.4318 32.9758 52.5701 34.0713 47.8994L34.2451 47.2139C36.158 40.187 41.7726 34.743 48.8994 33.0713L49.7773 32.8789Z" stroke="#141417" stroke-width="8" stroke-linecap="round" stroke-linejoin="round"/>
</g>
<path fill-rule="evenodd" clip-rule="evenodd" d="M49 49.1667C49 48.5223 49.5223 48 50.1667 48H57.9444C58.5888 48 59.1111 48.5223 59.1111 49.1667C59.1111 49.811 58.5888 50.3333 57.9444 50.3333H50.1667C49.5223 50.3333 49 49.811 49 49.1667ZM49 55C49 54.3557 49.5223 53.8333 50.1667 53.8333H61.8333C62.4777 53.8333 63 54.3557 63 55C63 55.6443 62.4777 56.1667 61.8333 56.1667H50.1667C49.5223 56.1667 49 55.6443 49 55ZM49 60.8333C49 60.189 49.5223 59.6667 50.1667 59.6667H56C56.6443 59.6667 57.1667 60.189 57.1667 60.8333C57.1667 61.4777 56.6443 62 56 62H50.1667C49.5223 62 49 61.4777 49 60.8333Z" fill="white"/>
<defs>
<filter id="filter0_d_34_26" x="-10.75" y="-11.75" width="133.5" height="133.5" filterUnits="userSpaceOnUse" color-interpolation-filters="sRGB">
<feFlood flood-opacity="0" result="BackgroundImageFix"/>
<feColorMatrix in="SourceAlpha" type="matrix" values="0 0 0 0 0 0 0 0 0 0 0 0 0 0 0 0 0 0 127 0" result="hardAlpha"/>
<feOffset/>
<feGaussianBlur stdDeviation="20"/>
<feComposite in2="hardAlpha" operator="out"/>
<feColorMatrix type="matrix" values="0 0 0 0 0.32549 0 0 0 0 0.27451 0 0 0 0 0.921569 0 0 0 1 0"/>
<feBlend mode="normal" in2="BackgroundImageFix" result="effect1_dropShadow_34_26"/>
<feBlend mode="normal" in="SourceGraphic" in2="effect1_dropShadow_34_26" result="shape"/>
</filter>
</defs>
</svg>
