<svg width="130" height="23" viewBox="0 0 130 23" fill="none" xmlns="http://www.w3.org/2000/svg">
<path d="M97.7852 21C97.6912 21.1072 97.5884 21.2105 97.4766 21.3096C96.7766 21.9296 95.8568 22.2402 94.7168 22.2402C93.5568 22.2402 92.6268 21.9296 91.9268 21.3096C91.8151 21.2106 91.713 21.1071 91.6191 21H97.7852ZM16.9395 21C15.3801 21.8063 13.6834 22.21 11.8496 22.21C9.99746 22.2099 8.28279 21.8062 6.70508 21H16.9395ZM84.4131 21C82.8539 21.8062 81.1578 22.2099 79.3242 22.21C77.4721 22.21 75.7574 21.8062 74.1797 21H84.4131ZM123.704 21C122.145 21.8062 120.449 22.2099 118.615 22.21C116.763 22.21 115.048 21.806 113.471 21H123.704ZM30.6025 22H23.9424V21H30.6025V22ZM39.5723 22H33.8721L33.5635 21H39.8809L39.5723 22ZM49.4727 22H42.8428V21H49.4727V22ZM67.1777 22H51.2773V21H67.1777V22ZM106.457 22H99.7969V21H106.457V22ZM19.6777 19C19.3241 19.36 18.9441 19.6934 18.5371 20H5.11328C4.70903 19.6935 4.33039 19.3599 3.97656 19H19.6777ZM30.6025 20H23.9424V19H30.6025V20ZM40.1895 20H33.2549L32.9463 19H40.499L40.1895 20ZM49.4727 20H42.8428V19H49.4727V20ZM67.1777 20H51.2773V19H67.1777V20ZM87.1523 19C86.7988 19.36 86.4187 19.6934 86.0117 20H72.5879C72.1836 19.6935 71.805 19.3599 71.4512 19H87.1523ZM98.5254 19C98.5225 19.3566 98.4696 19.6898 98.3652 20H91.0391C90.9347 19.6897 90.8808 19.3567 90.8779 19H98.5254ZM106.457 20H99.7969V19H106.457V20ZM126.443 19C126.09 19.36 125.71 19.6934 125.303 20H111.878C111.474 19.6935 111.095 19.3599 110.741 19H126.443ZM21.21 17C21.0029 17.3496 20.7796 17.6829 20.54 18H3.11035C2.86846 17.6829 2.64185 17.3496 2.43066 17H21.21ZM30.6025 18H23.9424V17H30.6025V18ZM40.8076 18H32.6367L32.3281 17H41.1162L40.8076 18ZM49.4727 18H42.8428V17H49.4727V18ZM67.1777 18H51.2773V17H67.1777V18ZM88.6846 17C88.4775 17.3496 88.2542 17.6829 88.0146 18H70.585C70.3431 17.6829 70.1165 17.3497 69.9053 17H88.6846ZM97.8604 17C98.1038 17.3009 98.2797 17.6343 98.3896 18H91.0137C91.1237 17.6341 91.3004 17.301 91.5439 17H97.8604ZM106.457 18H99.7969V17H106.457V18ZM127.976 17C127.768 17.3498 127.544 17.6828 127.305 18H109.875C109.633 17.6829 109.406 17.3496 109.195 17H127.976ZM22.1455 15C22.0285 15.3407 21.8948 15.6741 21.7432 16H1.89648C1.74493 15.6742 1.61209 15.3406 1.49512 15H9.00879C9.71032 15.6659 10.6566 15.9999 11.8496 16C13.0251 16 13.9624 15.6662 14.6621 15H22.1455ZM30.6025 16H23.9424V15H30.6025V16ZM41.4248 16H32.0195L31.7109 15H41.7344L41.4248 16ZM49.4727 16H42.8428V15H49.4727V16ZM59.1953 16H52.0371L52.8037 15H59.9756L59.1953 16ZM89.6191 15C89.5022 15.3406 89.3693 15.6742 89.2178 16H69.3711C69.2195 15.6741 69.0858 15.3407 68.9688 15H76.4824C77.184 15.6661 78.1309 16 79.3242 16C80.4995 16 81.4361 15.666 82.1357 15H89.6191ZM94.7168 15.6396C95.4145 15.6397 96.0296 15.7603 96.5625 16H92.8457C93.3833 15.7603 94.0069 15.6396 94.7168 15.6396ZM106.457 16H99.7969V15H106.457V16ZM128.91 15C128.793 15.3407 128.659 15.6741 128.508 16H108.661C108.51 15.6742 108.377 15.3406 108.26 15H115.773C116.475 15.666 117.422 16 118.615 16C119.79 15.9999 120.727 15.666 121.427 15H128.91ZM8.62988 8C8.04189 8.76495 7.72765 9.76498 7.68555 11H1V12H7.71191C7.78134 12.7598 7.96613 13.4263 8.2666 14H1.20605C1.00292 13.1401 0.899424 12.237 0.899414 11.29C0.899414 10.1278 1.05339 9.03112 1.35938 8H8.62988ZM22.7197 12C22.6813 12.691 22.5863 13.3576 22.4346 14H15.4033C15.7038 13.4263 15.8886 12.7598 15.958 12H22.7197ZM30.6025 14H23.9424V12H30.6025V14ZM42.043 14H31.4023L30.7842 12H36.2285L36.7822 13.5098L37.3223 12H42.6602L42.043 14ZM49.4727 14H42.8428V12H49.4727V14ZM60.7559 14H53.5713L55.1055 12H62.3164L60.7559 14ZM75.1865 12C75.256 12.7599 75.4407 13.4263 75.7412 14H68.6797C68.5279 13.3576 68.4329 12.691 68.3945 12H75.1865ZM90.1943 12C90.156 12.6911 90.06 13.3575 89.9082 14H82.877C83.1775 13.4263 83.3622 12.7599 83.4316 12H90.1943ZM106.457 14H99.7969V12H106.457V14ZM114.477 12C114.546 12.7599 114.732 13.4262 115.032 14H107.971C107.819 13.3575 107.723 12.6911 107.685 12H114.477ZM129.484 12C129.446 12.691 129.351 13.3576 129.199 14H122.168C122.468 13.4263 122.653 12.7598 122.723 12H129.484ZM22.2803 8C22.5607 8.94499 22.7129 9.94487 22.7363 11H15.9844C15.9423 9.76501 15.628 8.76494 15.04 8H22.2803ZM35.8613 11H23.9424V8H34.7598L35.8613 11ZM49.4727 11H37.6797L38.7529 8H49.4727V11ZM63.0967 11H55.873L58.1738 8H65.4375L63.0967 11ZM76.1045 8C75.5164 8.76498 75.2013 9.76487 75.1592 11H68.3779C68.4014 9.94494 68.5526 8.94493 68.833 8H76.1045ZM89.7549 8C90.0353 8.94495 90.1865 9.94491 90.21 11H83.459C83.4169 9.76485 83.1018 8.76498 82.5137 8H89.7549ZM106.457 11H99.7969V8H106.457V11ZM115.395 8C114.807 8.76494 114.492 9.76503 114.45 11H107.669C107.692 9.94491 107.844 8.94496 108.124 8H115.395ZM129.046 8C129.326 8.94492 129.478 9.94495 129.501 11H122.75C122.708 9.76494 122.393 8.76496 121.805 8H129.046ZM17.6699 2C19.1744 2.90451 20.374 4.13136 21.2695 5.67969C21.5211 6.10587 21.7407 6.54614 21.9277 7H13.8721C13.3022 6.70074 12.6283 6.5498 11.8496 6.5498C11.0593 6.54984 10.3774 6.70077 9.80273 7H1.71191C1.89892 6.54612 2.11851 6.10589 2.37012 5.67969C3.2843 4.13126 4.49413 2.90453 6 2H17.6699ZM34.3926 7H23.9424V2H32.5576L34.3926 7ZM49.4727 7H39.1104L40.8994 2H49.4727V7ZM67.1777 5.76953L66.2178 7H58.9414L59.6777 6.04004H51.2773V2H67.1777V5.76953ZM85.1436 2C86.6483 2.90456 87.8486 4.13113 88.7441 5.67969C88.9958 6.10591 89.2153 6.54609 89.4023 7H81.3457C80.7759 6.70092 80.1026 6.54982 79.3242 6.5498C78.5339 6.5498 77.852 6.70084 77.2773 7H69.1865C69.3735 6.54617 69.5922 6.10584 69.8438 5.67969C70.758 4.13105 71.9685 2.90459 73.4746 2H85.1436ZM106.457 7H99.7969V2H106.457V7ZM124.435 2C125.939 2.90458 127.14 4.13116 128.035 5.67969C128.287 6.10584 128.505 6.54617 128.692 7H120.637C120.067 6.70086 119.394 6.54987 118.615 6.5498C117.825 6.5498 117.142 6.70068 116.567 7H108.477C108.664 6.54609 108.883 6.10591 109.135 5.67969C110.049 4.13127 111.259 2.90454 112.765 2H124.435ZM11.8496 0.399414C13.153 0.399414 14.384 0.60079 15.543 1H8.14355C9.31107 0.60071 10.5462 0.399444 11.8496 0.399414ZM32.1904 1H23.9424V0.759766H32.1025L32.1904 1ZM49.4727 1H41.2568L41.3428 0.759766H49.4727V1ZM67.1777 1H51.2773V0.759766H67.1777V1ZM79.3242 0.399414C80.6277 0.399424 81.8585 0.600721 83.0176 1H75.6182C76.7857 0.60076 78.0208 0.399414 79.3242 0.399414ZM106.457 1H99.7969V0.759766H106.457V1ZM118.615 0.399414C119.919 0.399464 121.15 0.600681 122.309 1H114.909C116.077 0.600839 117.312 0.399414 118.615 0.399414Z" fill="white"/>
</svg>
