<svg width="108" height="52" viewBox="0 0 108 52" fill="none" xmlns="http://www.w3.org/2000/svg">
<path fill-rule="evenodd" clip-rule="evenodd" d="M48.6623 17.0502L41.9998 16V36H48.6623V17.0502ZM80.6683 26.0039C80.6683 30.53 78.3214 33.4069 75.6414 34.7429L75.6513 34.733C74.3743 35.3714 73.1289 35.6768 72.1949 35.8325C71.7239 35.9113 71.3298 35.9507 71.0362 35.9704C70.8982 35.9901 70.7701 35.9901 70.6834 35.9901H54.0124V16H70.9987C71.2923 16.0197 71.6963 16.0808 72.1673 16.1576C73.1092 16.3094 74.3783 16.6069 75.6631 17.2571C78.3746 18.6286 80.6703 21.3025 80.6703 26.0039H80.6683ZM60.6867 32.6404V32.6601L60.6769 32.6404H60.6867ZM67.6094 32.6404H60.6867V19.3379H67.6586C67.7966 19.3379 68.0133 19.3655 68.2872 19.4069C68.837 19.4897 69.5445 19.669 70.2499 20.0256C71.5091 20.6601 73.1762 22.3724 73.1762 25.9941C73.1762 29.3616 71.5465 31.2966 70.2598 31.933C69.5444 32.2877 68.8153 32.467 68.2577 32.5616C67.9818 32.6089 67.7571 32.6305 67.6094 32.6404ZM105.285 36H86.0007V16L92.6671 17.0502V32.67H106L105.283 35.998L105.285 36Z" fill="#2E2E2E"/>
<path d="M31.5071 16.108C31.1046 16.2356 30.7413 16.4615 30.4762 16.7855L21.6691 29.3235V17.0506L16.4359 16.1375C16.0727 16.2749 15.7486 16.4909 15.513 16.7855L6.66667 29.3333V17.0506L0 16V36H6.67648L15.0025 24.1198V36H21.6495L29.9755 24.3358V36H36.6421V17.0506L31.5071 16.108Z" fill="#2E2E2E"/>
<path d="M0 49.2773V43.2218H3.64187V44.177H0.99789V45.7293H3.13013V46.6845H0.99789V48.3221H3.64187V49.2773H0Z" fill="#2E2E2E"/>
<path d="M4.08984 49.2773L5.78711 47.1536L4.18366 45.0128H5.30096L6.37561 46.4457L7.45026 45.0128H8.57609L6.97264 47.1536L8.6699 49.2773H7.53555L6.38414 47.8359L5.23273 49.2773H4.08984Z" fill="#2E2E2E"/>
<path d="M8.83589 47.1451C8.83589 45.8913 9.76554 44.9275 11.0619 44.9275C12.1792 44.9275 13.1174 45.6696 13.1174 47.0427C13.1174 47.1366 13.1174 47.2133 13.1089 47.3498H9.75702C9.79966 48.0492 10.3626 48.5097 11.0705 48.5097C11.6675 48.5097 12.0684 48.2368 12.2901 47.8615L13.0066 48.3733C12.6228 48.9788 11.9575 49.3626 11.0619 49.3626C9.76554 49.3626 8.83589 48.4415 8.83589 47.1451ZM11.0278 45.7207C10.482 45.7207 9.9276 46.0363 9.79966 46.6675H12.1707C12.0684 46.0534 11.5737 45.7207 11.0278 45.7207Z" fill="#2E2E2E"/>
<path d="M18.0137 48.1856C17.647 48.8935 16.905 49.3626 16.0265 49.3626C14.7471 49.3626 13.7748 48.4074 13.7748 47.1451C13.7748 45.8828 14.7471 44.9275 16.0265 44.9275C16.905 44.9275 17.647 45.3966 18.0137 46.1045L17.195 46.5481C16.9903 46.1131 16.5723 45.7975 16.0265 45.7975C15.2674 45.7975 14.7301 46.386 14.7301 47.1451C14.7301 47.9042 15.2674 48.4927 16.0265 48.4927C16.5723 48.4927 16.9903 48.1771 17.195 47.7421L18.0137 48.1856Z" fill="#2E2E2E"/>
<path d="M22.5812 45.0128V49.2773H21.643V48.8338C21.3616 49.192 20.8925 49.3626 20.466 49.3626C19.4596 49.3626 18.8114 48.6632 18.8114 47.563V45.0128H19.7496V47.4095C19.7496 48.0833 20.0822 48.5097 20.6707 48.5097C21.1057 48.5097 21.4639 48.2368 21.643 47.8359V45.0128H22.5812Z" fill="#2E2E2E"/>
<path d="M26.8713 49.1067C26.6752 49.2006 26.2999 49.32 25.8649 49.32C25.0376 49.32 24.3809 48.8679 24.3809 47.9042V45.8487H23.3233V45.0128H24.3809V43.7761H25.3191V45.0128H26.624V45.8487H25.3191V47.7506C25.3191 48.2794 25.5835 48.4756 25.9843 48.4756C26.2487 48.4756 26.4619 48.3988 26.5899 48.3221L26.8713 49.1067Z" fill="#2E2E2E"/>
<path d="M28.6835 43.6226C28.6835 43.9723 28.4021 44.2538 28.0524 44.2538C27.7112 44.2538 27.4298 43.9723 27.4298 43.6226C27.4298 43.2815 27.7112 43 28.0524 43C28.4021 43 28.6835 43.2815 28.6835 43.6226ZM27.5833 49.2773V45.0128H28.5215V49.2773H27.5833Z" fill="#2E2E2E"/>
<path d="M33.9443 47.1451C33.9443 48.3818 32.972 49.3626 31.7097 49.3626C30.4474 49.3626 29.4751 48.3818 29.4751 47.1451C29.4751 45.9084 30.4474 44.9275 31.7097 44.9275C32.972 44.9275 33.9443 45.9084 33.9443 47.1451ZM30.4219 47.1451C30.4219 47.9042 30.9507 48.4927 31.7097 48.4927C32.4603 48.4927 32.9891 47.9042 32.9891 47.1451C32.9891 46.386 32.4603 45.7975 31.7097 45.7975C30.9507 45.7975 30.4219 46.386 30.4219 47.1451Z" fill="#2E2E2E"/>
<path d="M34.8879 49.2773V45.0128H35.8261V45.4649C36.1161 45.1067 36.5766 44.9275 37.0799 44.9275C38.1033 44.9275 38.7515 45.6269 38.7515 46.7272V49.2773H37.8134V46.8807C37.8134 46.2069 37.4722 45.7804 36.8752 45.7804C36.372 45.7804 36.0052 46.0619 35.8261 46.4542V49.2773H34.8879Z" fill="#2E2E2E"/>
<path d="M42.0702 49.2773V43.2218H43.0681V48.3221H45.84V49.2773H42.0702Z" fill="#2E2E2E"/>
<path d="M49.6107 48.8765C49.3122 49.192 48.8687 49.3626 48.3655 49.3626C47.1032 49.3626 46.2418 48.3477 46.2418 47.1451C46.2418 45.9425 47.1032 44.9275 48.3655 44.9275C48.8687 44.9275 49.3122 45.0981 49.6107 45.4052V45.0128H50.5489V49.2773H49.6107V48.8765ZM47.2056 47.1451C47.2056 47.8956 47.7258 48.5097 48.4764 48.5097C49.0222 48.5097 49.389 48.2538 49.6107 47.9127V46.3689C49.389 46.0363 49.0222 45.7804 48.4764 45.7804C47.7258 45.7804 47.2056 46.3945 47.2056 47.1451Z" fill="#2E2E2E"/>
<path d="M53.2453 50.9319H52.2133L53.0662 49.047L51.2324 45.0128H52.2644L53.5779 48.0321L54.8828 45.0128H55.9234L53.2453 50.9319Z" fill="#2E2E2E"/>
<path d="M56.17 47.1451C56.17 45.8913 57.0997 44.9275 58.3961 44.9275C59.5134 44.9275 60.4516 45.6696 60.4516 47.0427C60.4516 47.1366 60.4516 47.2133 60.4431 47.3498H57.0912C57.1338 48.0492 57.6967 48.5097 58.4046 48.5097C59.0017 48.5097 59.4025 48.2368 59.6243 47.8615L60.3407 48.3733C59.9569 48.9788 59.2916 49.3626 58.3961 49.3626C57.0997 49.3626 56.17 48.4415 56.17 47.1451ZM58.362 45.7207C57.8161 45.7207 57.2617 46.0363 57.1338 46.6675H59.5049C59.4025 46.0534 58.9078 45.7207 58.362 45.7207Z" fill="#2E2E2E"/>
<path d="M61.416 49.2773V45.0128H62.3542V45.5843C62.5163 45.2602 62.9512 44.9702 63.4289 44.9702C63.608 44.9702 63.7615 44.9958 63.8638 45.0214L63.7274 45.934C63.6421 45.8999 63.5056 45.8828 63.3606 45.8828C62.9854 45.8828 62.5419 46.096 62.3542 46.5395V49.2773H61.416Z" fill="#2E2E2E"/>
<path d="M66.7503 49.2773V45.8487H65.7439V45.0128H66.7503V44.5352C66.7503 43.6653 67.2962 43 68.2599 43C68.7205 43 69.0446 43.1194 69.2408 43.2303L68.8996 44.0064C68.7717 43.9382 68.584 43.8529 68.3452 43.8529C67.9358 43.8529 67.6885 44.1344 67.6885 44.5608V45.0128H69.1384V45.8487H67.6885V49.2773H66.7503Z" fill="#2E2E2E"/>
<path d="M73.9156 47.1451C73.9156 48.3818 72.9433 49.3626 71.681 49.3626C70.4187 49.3626 69.4464 48.3818 69.4464 47.1451C69.4464 45.9084 70.4187 44.9275 71.681 44.9275C72.9433 44.9275 73.9156 45.9084 73.9156 47.1451ZM70.3931 47.1451C70.3931 47.9042 70.9219 48.4927 71.681 48.4927C72.4315 48.4927 72.9603 47.9042 72.9603 47.1451C72.9603 46.386 72.4315 45.7975 71.681 45.7975C70.9219 45.7975 70.3931 46.386 70.3931 47.1451Z" fill="#2E2E2E"/>
<path d="M74.8592 49.2773V45.0128H75.7973V45.5843C75.9594 45.2602 76.3944 44.9702 76.872 44.9702C77.0511 44.9702 77.2046 44.9958 77.307 45.0214L77.1705 45.934C77.0852 45.8999 76.9488 45.8828 76.8038 45.8828C76.4285 45.8828 75.985 46.096 75.7973 46.5395V49.2773H74.8592Z" fill="#2E2E2E"/>
<path d="M79.9342 49.2773V43.2218H82.0238C83.1069 43.2218 83.8319 43.9894 83.8319 44.8934C83.8319 45.4308 83.6016 45.8146 83.269 46.0619C83.8234 46.2922 84.2413 46.7527 84.2413 47.5033C84.2413 48.5097 83.4396 49.2773 82.2882 49.2773H79.9342ZM80.9321 45.7719H81.9726C82.5184 45.7719 82.8511 45.4137 82.8511 44.9531C82.8511 44.5096 82.5184 44.1344 81.9726 44.1344H80.9321V45.7719ZM80.9321 48.3647H82.2626C82.9023 48.3647 83.269 47.998 83.269 47.4948C83.269 47.0001 82.9108 46.6248 82.2626 46.6248H80.9321V48.3647Z" fill="#2E2E2E"/>
<path d="M86.2791 43.6226C86.2791 43.9723 85.9977 44.2538 85.648 44.2538C85.3068 44.2538 85.0254 43.9723 85.0254 43.6226C85.0254 43.2815 85.3068 43 85.648 43C85.9977 43 86.2791 43.2815 86.2791 43.6226ZM85.1789 49.2773V45.0128H86.1171V49.2773H85.1789Z" fill="#2E2E2E"/>
<path d="M90.4055 49.1067C90.2094 49.2006 89.8341 49.32 89.3991 49.32C88.5718 49.32 87.9151 48.8679 87.9151 47.9042V45.8487H86.8575V45.0128H87.9151V43.7761H88.8533V45.0128H90.1582V45.8487H88.8533V47.7506C88.8533 48.2794 89.1177 48.4756 89.5185 48.4756C89.7829 48.4756 89.9962 48.3988 90.1241 48.3221L90.4055 49.1067Z" fill="#2E2E2E"/>
<path d="M94.9744 48.1856C94.6077 48.8935 93.8657 49.3626 92.9872 49.3626C91.7078 49.3626 90.7355 48.4074 90.7355 47.1451C90.7355 45.8828 91.7078 44.9275 92.9872 44.9275C93.8657 44.9275 94.6077 45.3966 94.9744 46.1045L94.1556 46.5481C93.9509 46.1131 93.533 45.7975 92.9872 45.7975C92.2281 45.7975 91.6908 46.386 91.6908 47.1451C91.6908 47.9042 92.2281 48.4927 92.9872 48.4927C93.533 48.4927 93.9509 48.1771 94.1556 47.7421L94.9744 48.1856Z" fill="#2E2E2E"/>
<path d="M99.9939 47.1451C99.9939 48.3818 99.0216 49.3626 97.7593 49.3626C96.497 49.3626 95.5247 48.3818 95.5247 47.1451C95.5247 45.9084 96.497 44.9275 97.7593 44.9275C99.0216 44.9275 99.9939 45.9084 99.9939 47.1451ZM96.4715 47.1451C96.4715 47.9042 97.0003 48.4927 97.7593 48.4927C98.5099 48.4927 99.0387 47.9042 99.0387 47.1451C99.0387 46.386 98.5099 45.7975 97.7593 45.7975C97.0003 45.7975 96.4715 46.386 96.4715 47.1451Z" fill="#2E2E2E"/>
<path d="M102.038 43.6226C102.038 43.9723 101.756 44.2538 101.407 44.2538C101.065 44.2538 100.784 43.9723 100.784 43.6226C100.784 43.2815 101.065 43 101.407 43C101.756 43 102.038 43.2815 102.038 43.6226ZM100.938 49.2773V45.0128H101.876V49.2773H100.938Z" fill="#2E2E2E"/>
<path d="M103.136 49.2773V45.0128H104.075V45.4649C104.365 45.1067 104.825 44.9275 105.328 44.9275C106.352 44.9275 107 45.6269 107 46.7272V49.2773H106.062V46.8807C106.062 46.2069 105.721 45.7804 105.124 45.7804C104.62 45.7804 104.254 46.0619 104.075 46.4542V49.2773H103.136Z" fill="#2E2E2E"/>
</svg>
