<svg width="58" height="20" viewBox="0 0 58 20" fill="none" xmlns="http://www.w3.org/2000/svg">
    <g clip-path="url(#clip0_6364_1936)">
    <path d="M19.8196 14.887C21.8214 11.5803 27.331 0.778606 27.331 0.778606H17.8886L8.06848 18.7236C9.61232 19.3995 11.3214 19.637 13.0021 19.4178C15.9907 19.0341 18.3229 17.3488 19.8196 14.887Z" fill="black"/>
    <path d="M35.2108 0.760336L32.0334 6.76178C31.075 8.59784 29.8664 10.4522 29.8664 11.7858C29.8664 13.2611 31.075 14.4531 32.5999 14.4531C34.1249 14.4531 35.3571 13.2611 35.3571 11.7858C35.3571 9.90409 33.9785 8.85817 31.9343 8.99976L34.2712 4.47356C38.1143 5.09471 40.4985 8.0726 40.4985 11.6899C40.4985 15.9055 36.9529 19.3127 32.5952 19.3127C28.2375 19.3127 24.7391 15.8599 24.7391 11.6899C24.7391 9.63918 26.316 6.78462 27.4491 4.73389L29.5973 0.760336H35.2108Z" fill="black"/>
    <path d="M49.5821 19.1757C44.9364 19.1757 41.1594 15.5219 41.1594 11.0276V8.64808C41.1594 4.15841 44.9364 0.5 49.5821 0.5C54.2277 0.5 58.0047 4.15385 58.0047 8.64808V11.0276C58.0047 15.5173 54.2277 19.1757 49.5821 19.1757ZM49.5821 4.98053C47.4906 4.98053 45.7909 6.62476 45.7909 8.64808V11.0276C45.7909 13.051 47.4906 14.6952 49.5821 14.6952C51.6735 14.6952 53.3732 13.051 53.3732 11.0276V8.64808C53.3732 6.62476 51.6735 4.98053 49.5821 4.98053Z" fill="black"/>
    <path d="M10.3394 12.4755C11.6707 10.0548 10.7501 7.04495 8.26202 5.72043C5.77395 4.39591 2.65323 5.25457 1.25103 7.63413L0.736421 8.53846C-0.826298 11.2834 0.207646 14.7363 3.04509 16.2481L7.00618 18.3582L10.3535 12.48L10.3394 12.4755Z" fill="black"/>
    </g>
    <defs>
    <clipPath id="clip0_6364_1936">
    <rect width="58" height="19" fill="white" transform="translate(0 0.5)"/>
    </clipPath>
    </defs>
    </svg>
    