<svg width="52" height="52" viewBox="0 0 82 82" fill="none" xmlns="http://www.w3.org/2000/svg">
<path fill-rule="evenodd" clip-rule="evenodd" d="M41 8.92079C23.2831 8.92079 8.92079 23.2831 8.92079 41C8.92079 48.5078 11.5 55.4133 15.8206 60.8786C16.8618 62.1957 18.8044 62.2118 19.995 61.0281L27.41 53.6559C28.8316 52.2425 28.4789 49.8469 26.9968 48.4971C23.6166 45.4186 21.4951 40.9818 21.4951 36.0496C21.4951 26.7537 29.0309 19.2179 38.3268 19.2179C43.2941 19.2179 47.7589 21.3696 50.8398 24.7919C52.1811 26.2817 54.5746 26.6484 55.9962 25.2349L61.1494 20.1115C62.34 18.9278 62.3351 16.9851 61.0241 15.9363C55.536 11.5461 48.5746 8.92079 41 8.92079ZM70.1027 27.4869C69.2879 25.7351 66.9996 25.4645 65.6295 26.8267L26.6843 65.5468C25.3142 66.9089 25.5715 69.1988 27.3185 70.0238C31.4684 71.9834 36.1062 73.0792 41 73.0792C58.7169 73.0792 73.0792 58.7169 73.0792 41C73.0792 36.1723 72.0128 31.5937 70.1027 27.4869ZM45.868 35.3046C46.5943 34.5825 46.9362 33.5237 46.5372 32.5805C45.1843 29.3825 42.0176 27.1387 38.3268 27.1387C33.4055 27.1387 29.4159 31.1282 29.4159 36.0496C29.4159 39.722 31.6375 42.8756 34.8101 44.2397C35.751 44.6442 36.8119 44.3084 37.5382 43.5863L45.868 35.3046ZM1 41C1 18.9086 18.9086 1 41 1C63.0914 1 81 18.9086 81 41C81 63.0914 63.0914 81 41 81C18.9086 81 1 63.0914 1 41Z" fill="white"/>
<path d="M34.8101 44.2397L34.4151 45.1583L34.8101 44.2397ZM37.5382 43.5863L36.8331 42.8771L37.5382 43.5863ZM27.3185 70.0238L27.7455 69.1195L27.3185 70.0238ZM55.9962 25.2349L56.7012 25.9441L55.9962 25.2349ZM65.6295 26.8267L64.9244 26.1175L65.6295 26.8267ZM70.1027 27.4869L69.1959 27.9087L70.1027 27.4869ZM27.41 53.6559L28.1151 54.365L27.41 53.6559ZM26.9968 48.4971L26.3235 49.2364L26.9968 48.4971ZM61.1494 20.1115L60.4443 19.4024L61.1494 20.1115ZM61.0241 15.9363L61.6488 15.1554L61.0241 15.9363ZM46.5372 32.5805L47.4582 32.1909L46.5372 32.5805ZM45.868 35.3046L45.1629 34.5955L45.868 35.3046ZM15.8206 60.8786L15.0362 61.4988L15.8206 60.8786ZM19.995 61.0281L19.2899 60.3189L19.995 61.0281ZM9.92079 41C9.92079 23.8354 23.8354 9.92079 41 9.92079V7.92079C22.7309 7.92079 7.92079 22.7309 7.92079 41H9.92079ZM16.6051 60.2585C12.419 54.9634 9.92079 48.2748 9.92079 41H7.92079C7.92079 48.7409 10.5809 55.8632 15.0362 61.4988L16.6051 60.2585ZM20.7 61.7372L28.1151 54.365L26.705 52.9467L19.2899 60.3189L20.7 61.7372ZM20.4951 36.0496C20.4951 41.2749 22.744 45.9764 26.3235 49.2364L27.6702 47.7578C24.4893 44.8607 22.4951 40.6888 22.4951 36.0496H20.4951ZM38.3268 18.2179C28.4787 18.2179 20.4951 26.2014 20.4951 36.0496H22.4951C22.4951 27.306 29.5832 20.2179 38.3268 20.2179V18.2179ZM51.583 24.1228C48.3204 20.4988 43.5893 18.2179 38.3268 18.2179V20.2179C42.9989 20.2179 47.1973 22.2405 50.0966 25.4609L51.583 24.1228ZM56.7012 25.9441L61.8544 20.8207L60.4443 19.4024L55.2911 24.5258L56.7012 25.9441ZM41 9.92079C48.3395 9.92079 55.0823 12.4636 60.3994 16.7172L61.6488 15.1554C55.9898 10.6285 48.8097 7.92079 41 7.92079V9.92079ZM64.9244 26.1175L25.9792 64.8376L27.3894 66.2559L66.3345 27.5359L64.9244 26.1175ZM41 72.0792C36.257 72.0792 31.7647 71.0174 27.7455 69.1195L26.8915 70.928C31.1721 72.9494 35.9555 74.0792 41 74.0792V72.0792ZM72.0792 41C72.0792 58.1646 58.1646 72.0792 41 72.0792V74.0792C59.2691 74.0792 74.0792 59.2691 74.0792 41H72.0792ZM69.1959 27.9087C71.0459 31.8861 72.0792 36.321 72.0792 41H74.0792C74.0792 36.0237 72.9797 31.3014 71.0094 27.0652L69.1959 27.9087ZM38.3268 28.1387C41.6019 28.1387 44.4143 30.129 45.6162 32.9701L47.4582 32.1909C45.9543 28.636 42.4334 26.1387 38.3268 26.1387V28.1387ZM30.4159 36.0496C30.4159 31.6805 33.9578 28.1387 38.3268 28.1387V26.1387C32.8532 26.1387 28.4159 30.576 28.4159 36.0496H30.4159ZM35.2051 43.321C32.3865 42.1091 30.4159 39.3083 30.4159 36.0496H28.4159C28.4159 40.1357 30.8885 43.6421 34.4151 45.1583L35.2051 43.321ZM38.2432 44.2954L46.573 36.0138L45.1629 34.5955L36.8331 42.8771L38.2432 44.2954ZM41 0C18.3563 0 0 18.3563 0 41H2C2 19.4609 19.4609 2 41 2V0ZM82 41C82 18.3563 63.6437 0 41 0V2C62.5391 2 80 19.4609 80 41H82ZM41 82C63.6437 82 82 63.6437 82 41H80C80 62.5391 62.5391 80 41 80V82ZM0 41C0 63.6437 18.3563 82 41 82V80C19.4609 80 2 62.5391 2 41H0ZM34.4151 45.1583C35.8254 45.7647 37.3078 45.2255 38.2432 44.2954L36.8331 42.8771C36.3159 43.3913 35.6766 43.5237 35.2051 43.321L34.4151 45.1583ZM25.9792 64.8376C24.1837 66.6228 24.4355 69.7682 26.8915 70.928L27.7455 69.1195C26.7075 68.6293 26.4447 67.1951 27.3894 66.2559L25.9792 64.8376ZM50.0966 25.4609C51.7142 27.2578 54.7698 27.8644 56.7012 25.9441L55.2911 24.5258C54.3793 25.4323 52.6479 25.3057 51.583 24.1228L50.0966 25.4609ZM66.3345 27.5359C67.2792 26.5967 68.7118 26.8678 69.1959 27.9087L71.0094 27.0652C69.864 24.6025 66.72 24.3324 64.9244 26.1175L66.3345 27.5359ZM28.1151 54.365C30.0465 52.4447 29.4577 49.3857 27.6702 47.7578L26.3235 49.2364C27.5002 50.3081 27.6168 52.0402 26.705 52.9467L28.1151 54.365ZM61.8544 20.8207C63.4216 19.2626 63.4764 16.6175 61.6488 15.1554L60.3994 16.7172C61.1939 17.3528 61.2584 18.593 60.4443 19.4024L61.8544 20.8207ZM45.6162 32.9701C45.8162 33.4428 45.6801 34.0813 45.1629 34.5955L46.573 36.0138C47.5084 35.0838 48.0563 33.6046 47.4582 32.1909L45.6162 32.9701ZM15.0362 61.4988C16.4876 63.3348 19.1329 63.2952 20.7 61.7372L19.2899 60.3189C18.4758 61.1283 17.2361 61.0566 16.6051 60.2585L15.0362 61.4988Z" fill="white"/>
</svg>
