<svg xmlns="http://www.w3.org/2000/svg" width="24" height="24" viewBox="0 0 24 24" fill="none">
<rect width="24" height="24" fill="#C85E20"/>
<path d="M8.70023 12.9373L11.0562 15.2947L10.1142 16.2373L11.0576 17.1807L10.1149 18.1233L8.4649 16.4733L6.5789 18.3593L5.63623 17.4167L7.52223 15.53L5.87223 13.8807L6.8149 12.938L7.75756 13.88L8.69956 12.9373H8.70023ZM6.00023 6L8.36423 6.002L16.2422 13.8807L17.1856 12.938L18.1282 13.8807L16.4789 15.5307L18.3642 17.4167L17.4216 18.3593L15.5356 16.4733L13.8856 18.1233L12.9429 17.1807L13.8856 16.2373L6.00223 8.354L6.00023 6ZM15.6382 6L18.0002 6.002L18.0016 8.35067L15.2996 11.052L12.9422 8.69533L15.6382 6Z" fill="#FCFCFC"/>
<script xmlns=""/></svg>