<svg xmlns="http://www.w3.org/2000/svg" width="24" height="24" viewBox="0 0 24 24" fill="none">
<rect width="24" height="24" fill="#5C7C2F"/>
<path d="M12.0002 11.3333C12.8842 11.3333 13.7321 11.6844 14.3572 12.3096C14.9823 12.9347 15.3335 13.7825 15.3335 14.6666V18.6666H8.66683V14.6666C8.66683 13.7825 9.01802 12.9347 9.64314 12.3096C10.2683 11.6844 11.1161 11.3333 12.0002 11.3333ZM7.5255 13.3373C7.4194 13.6951 7.35673 14.0644 7.33883 14.4373L7.3335 14.6666V18.6666H5.3335V15.6666C5.33336 15.0916 5.54551 14.5369 5.92925 14.1087C6.31299 13.6806 6.8413 13.4092 7.41283 13.3466L7.52616 13.3373H7.5255ZM16.4748 13.3373C17.0681 13.3734 17.6252 13.6346 18.0326 14.0674C18.4399 14.5003 18.6667 15.0722 18.6668 15.6666V18.6666H16.6668V14.6666C16.6668 14.2046 16.6002 13.7586 16.4748 13.3373ZM7.66683 9.33325C8.10886 9.33325 8.53278 9.50885 8.84534 9.82141C9.1579 10.134 9.3335 10.5579 9.3335 10.9999C9.3335 11.4419 9.1579 11.8659 8.84534 12.1784C8.53278 12.491 8.10886 12.6666 7.66683 12.6666C7.2248 12.6666 6.80088 12.491 6.48832 12.1784C6.17576 11.8659 6.00016 11.4419 6.00016 10.9999C6.00016 10.5579 6.17576 10.134 6.48832 9.82141C6.80088 9.50885 7.2248 9.33325 7.66683 9.33325ZM16.3335 9.33325C16.7755 9.33325 17.1994 9.50885 17.512 9.82141C17.8246 10.134 18.0002 10.5579 18.0002 10.9999C18.0002 11.4419 17.8246 11.8659 17.512 12.1784C17.1994 12.491 16.7755 12.6666 16.3335 12.6666C15.8915 12.6666 15.4675 12.491 15.155 12.1784C14.8424 11.8659 14.6668 11.4419 14.6668 10.9999C14.6668 10.5579 14.8424 10.134 15.155 9.82141C15.4675 9.50885 15.8915 9.33325 16.3335 9.33325ZM12.0002 5.33325C12.7074 5.33325 13.3857 5.6142 13.8858 6.1143C14.3859 6.6144 14.6668 7.29267 14.6668 7.99992C14.6668 8.70716 14.3859 9.38544 13.8858 9.88554C13.3857 10.3856 12.7074 10.6666 12.0002 10.6666C11.2929 10.6666 10.6146 10.3856 10.1145 9.88554C9.61445 9.38544 9.3335 8.70716 9.3335 7.99992C9.3335 7.29267 9.61445 6.6144 10.1145 6.1143C10.6146 5.6142 11.2929 5.33325 12.0002 5.33325Z" fill="#FCFCFC"/>
<script xmlns=""/></svg>